<?xml version="1.0" encoding="UTF-8"?>
<svg id="a" data-name="Layer 1" xmlns="http://www.w3.org/2000/svg" viewBox="0 0 1085 280">
  <g id="b" data-name="layer1">
    <path d="M334.403,47.8885l5.2095-5.0789-13.3468,1.5714-5.8749.0712-4.2744-2.079.1531-5.7034,12.1835-3.2345,10.8484-4.8094-3.6835-2.225-12.0551-3.5641-6.9011-5.171-9.7567-4.9884-10.6803-2.1277-12.075.3481-11.2598,4.1587-10.0592,7.4981-7.2059,10.931-2.9429,6.8696-6.6423,20.7708-11.5309,17.0009-6.8283,11.2773-38.6257,14.174-34.7849,23.1303-11.0763,12.0117-34.1727,16.9486-13.9177,8.1752-34.0256,16.6131-25.3206,11.6149-2.2363.5653c-9.0206,2.2801-17.7502,5.5861-26.0183,9.8533l-.0106.0055-1.6755,5.9387.9866,2.3425,5.7651,1.2989,8.6414-1.3846,21.2058-8.8888,33.3516-17.625,12.4658-4.9148,31.8599-6.2999,39.0358-10.5893,5.1867,7.2265,5.3999,5.6086,10.3873,4.3093,8.9035,2.1575,8.1707,6.0815,9.677,6.118,13.7063,3.6942,30.7842-.1816,19.7918-5.8387,5.6473-2.2108,3.5645-2.3771,10.0806-5.7552,7.9614-4.4154,6.0045-3.7961,4.4515-4.2975,9.6683-12.6632,8.1621-12.6996,6.0732-16.1992,1.1852-10.637-2.8098-14.4146-3.2257-3.5185-.0808-8.5647-1.4318-6.5336,1.2712-10.5942-1.4062-3.6648-1.7577-4.5809,2.0134-8.8787,7.8961-7.8598Z" style="fill: #fff;"/>
    <g id="c" data-name="g855">
      <path id="d" data-name="path4622" d="M508.5544,152.6472c-.3067-.0534-.9431-.0485-1.6383.0206-3.9378.3913-6.7349.0634-17.7969-2.0861-11.8473-2.3021-15.7278-2.7432-19.3322-2.1916-6.4389.9855-10.5348,3.521-13.7206,8.4934-1.4683,2.2917-1.7111,3.1607-1.3128,4.713,1.0902,4.2483,4.4383,7.6633,9.7215,9.9173,2.2632.9656,7.9728,1.8847,11.0357,1.7755,3.5249-.1256,7.9099-.8912,7.8617-1.3715-.0206-.2053-.8224-.7936-1.7807-1.3072-.6579-.3524-1.2111-.7171-1.506-.9717-.0593-.1816.0226-.3662.2864-.5533.6561-.2704,1.8815-.664,3.3296-1.0493,8.0676-2.1464,12.4937-4.2823,17.9631-8.6716,3.7575-3.0153,7.2796-6.3226,7.0761-6.6445-.0191-.0303-.0845-.0553-.1867-.0732h0Z" style="fill: #4da30a;"/>
      <path id="e" data-name="path4579" d="M427.5924,181.9596c-4.2014-.8693-8.4586-1.3244-11.6887-1.141-2.3746.1348-10.1872,2.9883-10.367,3.7862-.1506.6683.534,8.3349,1.0318,11.5501,1.0957,7.0765,2.4031,11.8589,4.2027,15.3826,4.1056,8.039,13.2274,16.0284,22.4743,19.6862,1.3722.543,4.935,1.5501,7.9162,2.2419,5.7291,1.3265,8.8299,1.5966,12.5619,1.0931,2.1021-.2836,8.6534-.7805,11.9215-.9046,1.3979-.053,3.5317.246,6.667.9404,2.9262.6469,4.6388.8977,4.6861.6869.1728-.7687-3.5709-5.8485-6.7131-9.1088-2.9207-3.0306-5.5839-5.5109-16.6183-15.4871-.1022-.0924-.1628-.1603-.259-.2491-.6041-.6014-1.1714-1.1716-1.55-1.5766-.0097-.0107-.0136-.0157-.0231-.0259-.6862-.8064-.9351-1.3461-.6237-1.5379.2508-.0245.8224.0738,1.6855.2575.3363.0924.6924.1987,1.063.3245,3.3632,1.1423,4.7707,1.4433,4.8617,1.0395.083-.3685-2.0471-6.0317-3.3021-8.7798-1.0734-2.3503-2.9616-4.8541-5.349-7.0931-3.3735-3.1638-5.9182-4.8558-11.2269-7.4597-3.0033-1.4731-7.1494-2.756-11.3507-3.6253h0Z" style="fill: #4da30a;"/>
      <g id="f" data-name="g846">
        <g>
          <path d="M239.1621,76.8004c13.3505-5.496,22.8563-5.3502,36.5513.5605,1.9238.8303,3.6235,1.4283,3.7767,1.3288.4739-.3073-1.8749-3.2852-5.6271-7.1346-5.1131-5.2456-5.8407-6.4896-5.2719-9.014.5902-2.6195,4.1169-7.2157,8.5651-11.1623,3.0407-2.6978,8.0216-5.8904,8.8862-5.6956.3587.0808.9987.6031,1.4222,1.1607,1.1577,1.5239,2.9504,2.3559,5.0825,2.3591,5.369.0078,9.5746-4.6886,7.8597-8.7769-1.0729-2.5579-4.7916-4.7208-7.6393-4.4432-1.4811.1444-3.89,1.3474-4.0412,2.0184-.067.2976.2717.5355.994.6983,1.3023.2934,2.1738,1.3289,2.1874,2.5987.0075.7101-.2201,1.0645-1.0005,1.5578-1.1561.731-2.3054.5821-3.5445-.4592-.8042-.6758-.97-.6951-2.7144-.315-2.9137.6348-5.6263,2.244-15.1828,9.0065-1.8841,1.3333-7.5398,4.61-12.5679,7.2816-5.0282,2.6716-9.8813,5.4099-10.7845,6.0851s-2.1654,2.0302-2.8049,3.0112c-1.1432,1.7539-7.6284,9.5292-8.3407,9.9999-.2003.1324-.4069.4299-.4589.6608h0c-.0521.2314-.0213.4369.0684.4571s2.1529-.7824,4.585-1.7836Z" style="fill: #1d5258;"/>
          <path d="M331.2151,89.1171c.9411-.0276,1.7476-.2116,1.792-.4088.197-.8744-1.9383-3.6547-3.4617-4.5075-2.8021-1.5684-3.5576-1.5205-9.13.5792-2.0056.7557-4.3232,1.5427-5.15,1.7489-3.4044.849-9.233.7659-17.1643-.2446-1.871-.2384-2.2077-.1986-1.9194.2275.5842.8634,3.4741,2.5647,6.0917,3.5861,2.8491,1.1119,5.0641,1.4339,10.9498,1.5918,5.2001.1396,9.2152.9814,10.7218,2.2481.5827.4899,2.362,2.5722,3.9541,4.6272,1.592,2.055,3.0037,3.761,3.1369,3.7911.3968.0897.3969-.4055.0008-3.3975-.3793-2.8651-1.0948-5.0606-2.4741-7.5919l-.7445-1.3664.8428-.4165c.4635-.229,1.6129-.439,2.5542-.4666Z" style="fill: #1d5258;"/>
          <path d="M253.3183,53.2552c8.5732-10.1541,11.6694-13.2869,18.9453-19.1686,1.7168-1.3879,4.2247-3.4578,5.573-4.5997,9.1508-7.7504,25.7564-11.4566,32.1514-7.1756,1.6694,1.1174,3.0486,3.4351,3.1815,5.3464.1724,2.4778-.7145,3.5327-4.7607,5.6621-1.9226,1.0118-4.2271,2.1334-5.1211,2.4924-1.8514.7435-2.0289,1.0455-1.2511,2.1281,1.4849,2.0668,1.2045,6.3191-.6126,9.2879-1.0026,1.6381-.9402,2.0666.2392,1.6412,5.4348-1.961,7.6425-2.3061,11.6903-1.8273,5.8423.6908,9.0326.7895,11.8542.3667,2.4856-.3725,4.1362-.835,9.7379-2.7293,1.7639-.5965-3.2447,2.3318-6.2356,3.6456-4.7273,2.0765-12.7901,4.1976-17.0949,4.4971-1.6927.1178-1.8513.3962-.8959,1.5715.3834.4716.7896,1.3826.9025,2.0246.2469,1.4031-.6373,5.5461-1.8285,8.5674-.4707,1.1932-.8392,2.3324-.8191,2.5314.02.199.9479-.7322,2.062-2.0694,2.5129-3.016,5.3278-5.2886,7.6829-6.2026,2.8563-1.1084,3.0008-.9567,2.4623,2.5866-.3263,2.1479-.345,3.5054-.064,4.6556.382,1.5641.7515,2.0583,3.3653,4.5014.6584.6154,2.3388,2.8642,3.7343,4.9973s2.6103,3.7586,2.6999,3.6122c.2746-.4494-.801-5.0577-1.5288-6.5502-.8374-1.717-.7843-2.0538.3614-2.293,1.2684-.2649,1.2327-.7772-.1407-2.0134-.6602-.5942-1.7461-1.8819-2.4133-2.8616-.9644-1.4162-1.2488-2.2396-1.3877-4.0169-.096-1.2296.0221-3.1084.2624-4.1752l.437-1.9396,3.9321-2.7529c2.1625-1.5141,4.9506-3.7119,6.1955-4.884,1.9672-1.8521,2.3103-2.3386,2.6207-3.7165l.3572-1.5855-1.2401-.149c-.6822-.082-3.3958-.0799-6.0302.0046-5.3539.1716-12.6991-.5749-13.1826-1.3397-.7311-1.1565,12.144-8.0688,17.4655-9.3769,5.5335-1.36,7.6709-2.0777,7.4115-2.488-.5659-.895-4.6294-2.3557-12.3079-4.4241l-8.166-2.1997-3.0047-2.4938c-3.3573-2.7864-8.5793-5.7192-12.2869-6.9002-3.3663-1.0724-3.0433-.3187.506,1.1809,8.298,3.5061,8.1353,3.9781-.6733,1.9539-5.5925-1.2851-7.9129-1.6825-10.326-1.7688-7.8666-.281-13.4919,1.0133-20.7927,4.7841-6.6901,3.4555-12.5427,8.5035-18.4495,15.9129-1.9843,2.4891-3.7249,4.4992-3.8681,4.4669-.3544-.0798-.3801-1.3477-.0536-2.8144.3587-1.6191-.3893-1.7672-1.412-.2796-1.6003,2.3281-2.816,5.1412-3.9795,9.21-1.2141,4.2456-3.2956,14.0798-3.1829,15.0377h0c.0815.692-.2912,1.0951,7.2788-7.8709ZM317.3213,32.3507c1.876-1.5389,3.9907-3.3552,4.6993-4.0362,1.2791-1.2294,1.3048-1.2361,3.5863-.933,3.3737.4481,7.3341,1.3175,7.2637,1.5945-.0346.1323-.932.5797-1.9943.9942-3.188,1.244-9.6024,4.1859-14.6068,6.6992-2.5904,1.301-4.8595,2.3826-5.0423,2.4036-1.2636.1455,1.6795-3.101,6.0942-6.7223Z" style="fill: #1d5258;"/>
          <path d="M221.9011,147.6476c-3.5353,1.1805-6.6848,2.2936-6.999,2.4736-.4953.2837-.4862.3463.0688.4713.352.0793,3.098.0785,6.1024-.0018,27.1174-.7242,45.306-4.6489,57.6754-12.4447,8.7619-5.5221,14.1888-11.8018,15.5958-18.0463.6911-3.067.6182-5.4182-.2715-8.7646-.6183-2.3255-2.9185-6.8969-2.7861-5.5372.4929,5.0621.0066,8.2455-1.8005,11.7854-4.3812,8.5822-16.0335,15.5972-34.3968,20.7078-5.338,1.4856-11.4195,2.8357-11.586,2.5723-.0679-.1074,1.4144-1.1814,3.294-2.3867,4.2359-2.7164,6.6308-4.8937,7.9832-7.2578,1.457-2.5471,2.2001-4.4486,1.7757-4.5442-.189-.0426-2.1208.8394-4.2927,1.9599-5.2836,2.7257-12.923,5.6023-18.2451,6.8701-8.1162,1.9335-15.4861,2.3274-26.2781,1.4043-14.1597-1.2111-16.5377-1.1691-23.1382.4085-5.8275,1.3929-17.4117,5.9114-17.6291,6.8764-.0333.1476,1.9238-.2279,4.349-.8344,4.605-1.1516,9.5893-1.7587,13.8598-1.6882,1.3836.0228,5.8129.5593,9.8428,1.1918,13.5689,2.1299,25.0181,2.5787,33.6013,1.3171,1.5204-.2233,2.8106-.3335,2.867-.2441.1786.2825-2.9626,1.4979-9.5919,3.7116Z" style="fill: #1d5258;"/>
          <path d="M191.3532,252.2299c-.5739.1186-1.5947.4045,0,0h0Z" style="fill: #1d5258;"/>
          <path d="M426.202,149.5816c-2.9086-.7691-7.7553-1.392-10.7639-1.3984-2.4927-.0053-5.6054.0445-8.6733.7384-18.2062,4.1175-49.085,16.6282-77.1913,32.745-2.3481,1.3465-5.84,3.6154-7.7597,5.0422-5.1234,3.8075-4.8244,3.6643-7.4463,3.5685-2.0243-.0741-3.8756-.5237-13.0727-3.1746-6.2369-1.7977-10.9708-3.3101-11.3279-3.6188-.3373-.2917-.551-.7783-.4747-1.0816.0769-.3054,1.7651-1.3211,3.7847-2.2772,4.2381-2.0065,11.2198-6.6307,16.5112-10.9359,3.3661-2.7388,4.1106-3.5554,8.0538-8.8334,5.9036-7.9021,8.8047-13.3108,12.0564-22.4778,3.1749-8.9503,5.0934-17.205,4.6055-19.8167-.4138-2.2147-.8492-2.3405-.9911-.2864-.2039,2.9513-2.3974,11.7593-3.6685,14.7303-1.555,3.6346-4.6896,9.334-7.0661,12.8477-9.3364,13.8037-22.255,24.667-33.6325,28.2818-2.976.9455-2.7208,1.5616.5474,1.3218,3.7891-.2782,9.6642-2.4276,15.4688-5.6594,1.2778-.7114,2.3407-1.1195,2.3622-.9064.0556.5539-2.5526,2.9644-5.6561,5.2271-1.4669,1.0695-5.611,3.6399-9.2091,5.712-8.3752,4.8231-16.4011,9.8335-16.2172,10.1245.0786.1245,3.1841.5105,6.9009.858,7.2109.6741,25.2811,2.7815,26.8167,3.1275,1.5239.3434,1.2707,1.1427-1.0374,3.2739-17.1141,15.8029-30.7312,27.4621-33.921,29.044-1.6166.8016-10.1469,3.9881-18.7869,7.0179-3.9952,1.401-4.9083,1.592-7.1295,1.4919-3.0756-.1389-7.9366-1.1744-9.5328-2.0308-.6672-.358-1.7822-1.5127-2.6176-2.7108-.8004-1.148-1.7213-2.3763-2.0463-2.7299-.325-.3534-2.3183-4.7877-4.4295-9.8541-2.1111-5.0663-4.3666-10.3739-5.0119-11.7947-.6453-1.4209-1.1438-2.7145-1.1077-2.8749.1039-.4615,1.83-.6605,10.269-1.1843,7.1451-.4434,8.5465-.6496,14.5796-2.1444,10.8497-2.6883,14.6685-3.8566,18.6546-5.7072,2.0737-.9627,3.7189-1.8315,3.6559-1.9312-.0629-.0994-1.9711.3919-4.2404,1.092-22.3696,6.9012-39.6025,6.3769-59.5903-1.8121-7.648-3.1334-7.9784-3.4483-4.5059-4.2957,3.3363-.8141,8.2934-1.1189,13.661-.8403,3.0765.1597,5.1328.1215,5.111-.0952-.02-.1994-.6322-.7194-1.3605-1.1555-1.8649-1.1167-13.4355-3.6786-21.652-4.794-10.7609-1.4607-16.9335-2.5936-21.4763-3.941-4.8312-1.4331-7.6756-2.8154-7.3395-3.5667.1262-.2818,2.5156-.9752,5.7752-1.6759,8.7629-1.8836,15.0032-4.5254,21.0142-8.8963,2.6227-1.9069,3.2327-2.4827,2.7473-2.592-.1049-.0237-2.3955.6202-5.0899,1.431-8.7692,2.6383-20.3429,4.9181-21.8917,4.312-.461-.1804.6223-.7999,4.1154-2.3533,5.0633-2.2517,11.4749-5.9255,10.9607-6.2804-.1711-.1181-3.2849.4736-6.9199,1.3148-7.3146,1.6927-13.32,2.682-16.0364,2.6415-1.6988-.0252-1.8188-.0769-2.6158-1.126-.6942-.9137-1.1493-1.1703-2.6935-1.5182-2.3225-.5232-6.0633-.1548-8.9156.8782-11.5253,4.1741-31.2681,7.2525-44.2316,6.8967-2.5504-.0699-5.068-.38-7.6092-.9405-4.1797-.9201-4.7718-.7812-3.7256.8736,1.0997,1.7396,5.6048,2.8076,14.5034,3.4381,3.5307.2502,9.8708.4894,13.6055.5135.4197.003.7336.1363.6974.2967s-2.0035.5819-4.372.9367c-32.9795,4.9398-43.0185,7.1623-64.2615,14.2259-12.3985,4.1225-17.0708,5.4943-20.8237,6.1134-.5336.088-.9999.2918-1.0363.4534-.1257.5577,1.9034,1.8336,3.4816,2.1892,2.2483.5065,6.2493-.5724,28.1352-7.5866,10.6571-3.4155,10.7992-3.4565,10.7173-3.0934-.0721.3197-12.7749,6.7219-29.5054,14.8704-33.9194,16.5203-32.1107,13.1479-37.3874,12.0721-1.5949-.3253-1.7939-.4524-1.9619-1.2533-.1186-.5658.0699-1.6803.5162-3.0519.7911-2.4314.6064-3.088-.45-1.6-1.3422,1.8904-2.1417,3.8084-2.2591,5.4194-.2098,2.8784,2.7047,6.1413,6.1865,6.9259,1.5196.3424,4.921.124,7.2836-.4676,5.8835-1.4733.4149,1.5613,29.5414-14.0124,18.4873-9.885,22.1632-11.8677,29.7637-15.263,12.2716-5.4819,10.8855-5.0732,29.289-8.6339,9.2784-1.7951,17.9227-3.5271,19.2095-3.8486,1.2868-.3217,4.9596-1.0193,8.1618-1.5502,3.2022-.531,8.4121-1.6063,11.5777-2.3896,8.4164-2.0841,10.944-2.3542,12.0072-1.291.3423.3423.1565.5809-1.0753,1.3803-.819.5316-1.512,1.068-1.54,1.1921-.0279.124.8078.8746,1.8572,1.668,4.0765,3.0818,17.0814,8.2779,25.4211,10.157l3.8446.8663,2.0468,3.0096c1.1259,1.6553,2.5606,3.4363,3.1882,3.9581,3.0818,2.561,11.0728,7.1328,14.6044,8.3555,2.1916.7588,2.4756.9693,4.6988,3.4817,6.9924,7.9026,22.5043,29.9767,23.4252,33.3351.6601,2.4073-2.1529,5.2044-6.2761,6.2409-1.1882.2987-6.5862,1.8694-11.9956,3.4904l-19.6771,5.2733c-11.3151,3.4321-53.6022,9.3967-55.3662,10.3321-.7526.399-.8628.7723-2.8953,9.7926-.7592,3.3696-1.1526,5.1667-1.3251,6.1321-.1042.5828.4261,1.0764,1.0029.943l12.8902-2.9814c12.8405-2.6322,13.7708-2.5664,24.1677-4.4198l14.805-3.1099c13.5572-2.8478,26.9207-6.5639,39.9696-11.2148,12.0475-4.2939,12.3872-5.3148,20.0295-8.3685,6.3676-2.5444,23.3221-9.9048,28.3536-12.3092,3.619-1.7294,4.6377-2.4223,8.4656-5.7582,5.4613-4.7594,14.5061-13.3697,20.0265-19.0644,21.8397-22.5315,38.822-30.5543,67.7106-42.6763,2.5655-1.0766,5.3027-2.1441,8.0534-1.7263,2.5653.3897,4.7476,2.0136,6.8118,3.5859,4.7871,3.6462,9.5741,7.2924,14.3613,10.9386-5.7947-6.7396-12.3356-12.8372-19.4647-18.1453,11.749-5.5268,24.0864-11.1789,37.0584-10.6198,10.443.4501,20.2983,4.9127,30.6461,6.3893-8.2389-3.5733-16.7473-6.5249-25.4293-8.8206Z" style="fill: #1d5258;"/>
          <path d="M110.0512,155.4238c.6034-.2979,2.7996-1.3859,4.8805-2.4179,8.7271-4.328,15.1072-6.583,32.5374-11.4996,2.6527-.7482,5.2755-1.601,5.8282-1.8949,1.5388-.8183,1.3359-1.9529-.707-3.9522-.9177-.8982-1.6309-1.8001-1.5848-2.0047.0944-.4188,7.2676-6.0599,11.9343-9.3854,23.9543-17.0694,47.2772-28.2335,74.4688-35.6462,7.0239-1.9143,6.5212-1.7475,6.3-2.0974-.3271-.5175-5.3202-.6091-9.6509-.1771-5.9559.594-18.3103,3.6814-25.961,6.4877-15.1387,5.553-26.8744,11.2985-38.7738,18.9826-6.5918,4.2567-10.8539,7.4982-16.2167,12.3335-1.7079,1.54-3.4977,3.1095-3.9773,3.4879-1.1484.9061-4.428,4.8718-5.354,6.4741-.6175,1.0685-1.24,1.4907-3.976,2.6969-6.1066,2.6922-16.4454,8.7599-25.3484,14.8769-2.9495,2.0265-5.3928,3.818-5.4297,3.9812-.0366.1631.427.0527,1.0304-.2452Z" style="fill: #1d5258;"/>
        </g>
        <path id="g" data-name="path4583" d="M305.7658,20.8056c-4.4515-.96-11.0991-.1313-17.4309,2.2609-2.6219.9906-8.0248,4.0829-11.2341,6.429-1.175.859-3.7272,2.9518-3.7586,3.0818-.011.0472.0413.0454.1137.0016.218-.1378.5054-.0149.681.2903.091.1577.2701.3886.3982.5147.1281.126.2745.24.3268.2518.2608.0597,2.8986-.2887,7.0213-.9265,4.2725-.661,6.243-.8289,8.3794-.7158,1.2297.0652,2.0269.1939,6.1576,1.0019,3.0146.5898,3.918.6974,5.8014.6873.5814-.0032,1.7545.0073,2.6069.0235,1.7105.0326,1.6363.0499,3.1708-.7679,1.6441-.8761,3.3341-2.2204,3.7588-2.9906.1248-.226.2926-.7145.3733-1.0872.3158-1.455.0313-3.0403-.7839-4.3603-1.0051-1.6275-2.0169-2.4695-3.8169-3.1737-.539-.2108-1.1294-.3829-1.7653-.5201l.0003-.0007Z" style="fill: #ddf027;"/>
      </g>
    </g>
  </g>
  <g>
    <path d="M495.3633,51.3807c4.3394-.0723,5.3521-1.1572,5.3521-5.2798V12.6859c0-4.1226-1.0127-5.2798-5.3521-5.3521v-3.0376h20.9746c11.5,0,17.5757,4.2671,17.5757,12.8018,0,6.0752-3.3271,9.5469-9.9814,10.9937v.2891c8.3901,1.085,12.2236,5.9307,12.2236,12.6572,0,8.9683-6.7266,13.3081-17.2861,13.3081h-23.5063v-2.9653ZM515.8315,26.5004c6.2925,0,8.3901-2.3867,8.3901-8.7515,0-6.7266-2.3867-9.041-8.6792-9.041h-5.4971v17.7925h5.7861ZM517.3506,50.079c6.7988,0,9.041-2.604,9.041-9.7642,0-6.8711-2.3145-9.5474-9.6196-9.5474h-6.7266v19.3115h7.3052Z" style="fill: #fff;"/>
    <path d="M559.1523,55.2142c-10.6318,0-17.4302-6.9434-17.4302-18.9497,0-11.7173,7.0874-19.1665,17.647-19.1665,10.6318,0,17.4307,7.0879,17.4307,18.9492,0,12.7295-7.8115,19.167-17.6475,19.167ZM559.1523,21.2206c-5.7861,0-7.8115,4.4839-7.8115,14.7544,0,10.4873,1.9531,15.2612,8.1006,15.2612,5.1357,0,7.7393-4.9185,7.7393-15.189,0-10.7764-2.749-14.8267-8.0283-14.8267Z" style="fill: #fff;"/>
    <path d="M604.8604,17.098c.9404,0,1.8809.1445,2.459.3613l-1.8076,9.2578c-.9404-.3613-1.7363-.5063-3.1826-.5063-5.7139,0-7.3779,2.0254-7.3779,8.3179v11.8613c0,4.1226.7236,4.9185,5.9316,5.063v2.8931h-19.5283v-2.8931c3.9053-.2168,4.7734-.9404,4.7734-5.063v-17.4307c0-5.2798-.9404-6.0029-4.8457-6.1475v-2.7485l10.6318-2.8931h1.085c.5059,1.085,1.6631,4.4116,1.7354,8.8237,2.3145-5.6416,6.2207-8.896,10.126-8.896Z" style="fill: #fff;"/>
    <path d="M639.5039,47.0409l1.5908,2.7485c-3.6885,3.3271-8.2451,5.4248-14.0312,5.4248-10.8486,0-17.2139-7.0161-17.2139-19.167,0-12.0059,6.8711-18.9492,16.5635-18.9492,10.3418,0,15.333,6.5093,15.333,17.5752v2.5312h-22.4941c.2178,9.2578,3.3994,12.585,10.6328,12.585,3.0371,0,6.7256-1.085,9.6191-2.7485ZM619.3242,32.9374h13.4531c0-8.7515-1.8076-11.7891-6.3643-11.7891-4.2676,0-6.582,2.748-7.0889,11.7891Z" style="fill: #fff;"/>
    <path d="M681.0176,50.6576v2.8203c-1.3018.7236-3.6885,1.3022-6.292,1.3022-4.7744,0-6.5098-2.0254-7.0156-5.063-1.2305,2.3867-4.4121,5.6416-9.9814,5.6416-6.6543,0-11.5723-3.3994-11.5723-10.4873,0-8.6069,6.9434-11.8618,18.2988-11.8618.8672,0,2.0967,0,3.0371.0723v-3.2544c0-5.8584-1.374-8.4624-5.7861-8.4624-5.0625,0-6.4365,2.9653-7.0156,6.5815h-6.3643v-6.9434c3.4717-1.9526,9.1855-3.9053,14.6094-3.9053,8.2451,0,13.4531,3.6885,13.4531,12.1509,0,2.1694-.2891,8.3174-.2891,14.8989,0,5.4248.7227,6.2925,4.918,6.5098ZM664.8164,36.7709c-6.4375,0-9.4746,2.1694-9.4746,7.0879,0,4.6289,1.8076,6.0029,5.207,6.0029,2.6045,0,5.1357-1.6636,6.582-3.9053l.2168-9.1133c-.5781,0-1.9521-.0723-2.5312-.0723Z" style="fill: #fff;"/>
    <path d="M697.5771,46.2455c0,4.1948.7236,5.063,4.9189,5.2075v2.8931h-18.6611v-2.8931c4.0508-.2168,4.9189-.9404,4.9189-5.063V12.3241c0-5.2798-1.1572-6.0029-5.208-6.1475v-2.7485l11.8613-2.0254h1.085c.4346,1.085,1.085,3.4717,1.085,7.1606v37.6821Z" style="fill: #fff;"/>
    <path d="M750.4453,39.8807h-15.9844l-2.0977,6.9434c-.2891.9404-.3613,1.6636-.3613,2.1699,0,1.8804,1.5186,2.2422,4.9902,2.3867v2.9653h-15.7666v-2.9653c3.2549-.2896,4.3398-1.1572,5.7139-5.4243l13.5244-41.6602h7.8838l13.8145,41.5151c1.2295,3.689,2.0977,5.2798,5.4248,5.5693v2.9653h-19.2393v-2.9653c3.3271-.1445,4.6289-.8682,4.6289-2.604,0-.5786-.1445-1.3018-.3613-1.9526l-2.1699-6.9434ZM735.7627,35.3963h13.3086l-3.6162-11.5c-1.5918-5.1353-2.5322-8.9683-2.8936-10.7764h-.3613c-.5068,2.0972-1.3018,5.4243-2.9658,10.8491l-3.4717,11.4272Z" style="fill: #fff;"/>
    <path d="M780.3867,54.7079l-11.0664-28.9307c-1.374-3.6167-2.2422-4.3398-4.918-4.7017v-2.9653h18.0088v2.9653c-3.2539.0728-4.3389.7959-4.3389,2.2422,0,.5786.1445,1.1572.4336,2.0254l5.3525,15.1162c.6504,1.8081,1.3018,4.3398,1.5186,5.9307h.3613c.1455-.7954.7959-3.6162,1.5918-5.9307l5.1348-15.1162c.2891-.7959.4346-1.4468.4346-1.9531,0-1.5908-1.2305-2.2417-4.4844-2.3145v-2.9653h14.4648v2.9653c-2.8926.3618-3.833,1.0127-5.1348,4.7017l-10.5596,28.9307h-6.7988Z" style="fill: #fff;"/>
    <path d="M804.7588,54.3461v-2.8931c3.9053-.2168,4.7734-.9404,4.7734-5.063v-17.4307c0-5.2798-.9404-6.0029-4.8457-6.1475v-2.7485l12.2949-2.6763h1.374v29.0029c0,4.1226.5791,4.9185,4.7021,5.063v2.8931h-18.2988ZM813.4375,13.0477c-3.0371,0-5.4971-2.4595-5.4971-5.4971s2.46-5.4966,5.5693-5.4966,5.4971,2.459,5.4971,5.4966-2.459,5.4971-5.5693,5.4971Z" style="fill: #fff;"/>
    <path d="M861.6777,50.6576v2.8203c-1.3018.7236-3.6885,1.3022-6.292,1.3022-4.7744,0-6.5098-2.0254-7.0156-5.063-1.2305,2.3867-4.4121,5.6416-9.9814,5.6416-6.6543,0-11.5723-3.3994-11.5723-10.4873,0-8.6069,6.9434-11.8618,18.2988-11.8618.8672,0,2.0967,0,3.0371.0723v-3.2544c0-5.8584-1.374-8.4624-5.7861-8.4624-5.0625,0-6.4365,2.9653-7.0156,6.5815h-6.3643v-6.9434c3.4717-1.9526,9.1855-3.9053,14.6094-3.9053,8.2451,0,13.4531,3.6885,13.4531,12.1509,0,2.1694-.2891,8.3174-.2891,14.8989,0,5.4248.7227,6.2925,4.918,6.5098ZM845.4766,36.7709c-6.4375,0-9.4746,2.1694-9.4746,7.0879,0,4.6289,1.8076,6.0029,5.207,6.0029,2.6045,0,5.1357-1.6636,6.582-3.9053l.2168-9.1133c-.5781,0-1.9521-.0723-2.5312-.0723Z" style="fill: #fff;"/>
    <path d="M900.6602,46.39c0,4.1226.7949,4.8462,4.4844,5.063v2.8931h-18.0098v-2.8931c4.123-.1445,4.7012-1.0127,4.7012-4.7734v-17.0693c0-4.3394-1.8076-5.9307-4.9902-5.9307-3.7607,0-6.2207,1.519-8.5352,3.5439v19.4561c0,3.7607.5791,4.6289,4.7021,4.7734v2.8931h-18.2988v-2.8931c3.9053-.2168,4.7734-.9404,4.7734-5.063v-17.4307c0-5.2798-.9404-6.0029-4.8457-6.1475v-2.7485l10.6318-2.8931h1.085c.4336.9399,1.5186,3.6885,1.6631,6.437,3.1826-3.4717,6.8711-6.3647,12.5127-6.3647,5.8584,0,10.126,3.4717,10.126,10.415v18.7324Z" style="fill: #fff;"/>
    <path d="M550.4756,81.12c-5.207.2891-5.7861,1.8081-5.4961,5.4966l2.8926,32.981c.3613,4.1948,1.0127,5.5693,5.0625,5.7139v2.8931h-19.2383v-2.8931c4.9907-.1445,5.3521-1.519,5.063-5.2075l-2.0254-24.8081c-.1445-2.0972-.2168-5.4243-.2168-7.2324v-1.519h-.3613c-.2173,1.4463-.9404,5.4243-1.7363,8.1006l-9.8359,33.5596h-5.6416l-9.9814-31.8237c-1.0122-3.2549-1.9526-8.3901-2.1694-9.9087h-.4341c0,1.4463-.2168,5.7139-.4341,9.7642l-1.374,23.7954c-.2173,3.7607,0,5.2075,4.9907,5.2798v2.8931h-15.4058v-2.8931c4.1226-.1445,4.8457-1.374,5.1353-5.7139l2.3867-32.981c.2891-3.6162-.1445-5.2798-5.4971-5.4966v-2.9653h16.4907l9.0405,28.6411c1.085,3.3994,1.6636,7.522,1.8086,9.1855h.3613c.2173-1.519.8682-5.7139,1.8081-9.1133l8.2456-28.7134h16.562v2.9653Z" style="fill: #fff;"/>
    <path d="M573.6895,129.0726c-10.6318,0-17.4307-6.9434-17.4307-18.9497,0-11.7173,7.0879-19.1665,17.6484-19.1665,10.6318,0,17.4307,7.0879,17.4307,18.9492,0,12.7295-7.8115,19.167-17.6484,19.167ZM573.6895,95.079c-5.7861,0-7.8105,4.4839-7.8105,14.7544,0,10.4873,1.9521,15.2612,8.1006,15.2612,5.1348,0,7.7383-4.9185,7.7383-15.189,0-10.7764-2.748-14.8267-8.0283-14.8267Z" style="fill: #fff;"/>
    <path d="M610.9355,128.9999c-7.9561,0-14.3936-5.4243-14.3936-18.5879,0-12.5122,6.3652-19.311,15.6953-19.311,3.6162,0,7.0156,1.374,9.1855,3.9058v-8.8242c0-5.2798-1.085-6.0029-4.9912-6.1475v-2.7485l12.1514-2.0254h1.6631v42.5283c0,5.2798.9404,5.9307,5.1357,6.1479v2.6035l-10.5596,2.604h-1.085c-.2891-.3618-1.5195-2.7485-1.8086-6.0757-2.3145,3.4717-6.582,5.9307-10.9932,5.9307ZM613.5391,123.5755c2.8203,0,5.4971-1.519,7.8838-4.0503v-19.8896c-1.8809-2.3145-4.7012-3.3271-7.3779-3.3271-4.8457,0-7.9561,2.6035-7.9561,13.2358,0,10.7041,2.5322,14.0312,7.4502,14.0312Z" style="fill: #fff;"/>
    <path d="M668.9385,120.8993l1.5908,2.7485c-3.6885,3.3271-8.2451,5.4248-14.0312,5.4248-10.8486,0-17.2139-7.0161-17.2139-19.167,0-12.0059,6.8711-18.9492,16.5635-18.9492,10.3428,0,15.333,6.5093,15.333,17.5752v2.5312h-22.4941c.2178,9.2578,3.3994,12.585,10.6328,12.585,3.0371,0,6.7256-1.085,9.6191-2.7485ZM648.7588,106.7958h13.4531c0-8.7515-1.8086-11.7891-6.3643-11.7891-4.2676,0-6.582,2.748-7.0889,11.7891Z" style="fill: #fff;"/>
    <path d="M688.8984,120.1039c0,4.1948.7236,5.063,4.9189,5.2075v2.8931h-18.6602v-2.8931c4.0498-.2168,4.918-.9404,4.918-5.063v-34.0659c0-5.2798-1.1572-6.0029-5.208-6.1475v-2.7485l11.8623-2.0254h1.084c.4346,1.085,1.085,3.4717,1.085,7.1606v37.6821Z" style="fill: #fff;"/>
    <path d="M710.8828,120.1039c0,4.1948.7236,5.063,4.9189,5.2075v2.8931h-18.6602v-2.8931c4.0498-.2168,4.918-.9404,4.918-5.063v-34.0659c0-5.2798-1.1572-6.0029-5.208-6.1475v-2.7485l11.8623-2.0254h1.084c.4346,1.085,1.085,3.4717,1.085,7.1606v37.6821Z" style="fill: #fff;"/>
    <path d="M719.3438,128.2045v-2.8931c3.9053-.2168,4.7734-.9404,4.7734-5.063v-17.4307c0-5.2798-.9404-6.0029-4.8457-6.1475v-2.7485l12.2949-2.6763h1.374v29.0029c0,4.1226.5791,4.9185,4.7012,5.063v2.8931h-18.2979ZM728.0225,86.9061c-3.0371,0-5.4971-2.4595-5.4971-5.4971s2.46-5.4966,5.5693-5.4966,5.4971,2.459,5.4971,5.4966-2.459,5.4971-5.5693,5.4971Z" style="fill: #fff;"/>
    <path d="M777.1309,120.2484c0,4.1226.7949,4.8462,4.4844,5.063v2.8931h-18.0098v-2.8931c4.123-.1445,4.7012-1.0127,4.7012-4.7734v-17.0693c0-4.3394-1.8076-5.9307-4.9902-5.9307-3.7607,0-6.2207,1.519-8.5352,3.5439v19.4561c0,3.7607.5791,4.6289,4.7021,4.7734v2.8931h-18.2988v-2.8931c3.9053-.2168,4.7734-.9404,4.7734-5.063v-17.4307c0-5.2798-.9404-6.0029-4.8457-6.1475v-2.7485l10.6318-2.8931h1.085c.4336.9399,1.5186,3.6885,1.6631,6.437,3.1826-3.4717,6.8711-6.3647,12.5127-6.3647,5.8584,0,10.126,3.4717,10.126,10.415v18.7324Z" style="fill: #fff;"/>
    <path d="M784.9395,134.2797c0-2.5312,1.8809-4.1948,3.6885-5.0625l5.3525-.1445c-.5068.9399-.8682,2.1694-.8682,3.6162,0,3.7607,2.0977,5.5688,8.1729,5.5688,6.8711,0,9.2578-2.3867,9.2578-6.1475,0-3.9058-2.0254-4.8462-10.2705-5.1353-2.8203-.0723-6.0752-.2896-7.5215-.5063-3.5439-.4341-5.0635-3.0376-5.0635-6.0029,0-3.1826,2.9658-5.7139,7.3779-6.9434-5.6416-1.23-9.041-5.2798-9.041-10.4878,0-7.4492,5.7139-12.0059,14.6094-12.0059,2.6045,0,4.4844.4336,6.6543,1.0127,1.8086.5059,3.1104.8677,4.7734.8677,2.3145,0,4.6289-1.3018,6.6543-2.8931l3.1104,5.8584c-1.7363,1.085-3.4717,1.7358-5.4971,1.7358-1.5908,0-3.1104-.3618-4.918-1.1572,2.0977,1.519,3.7607,3.8335,3.7607,7.0156,0,8.4624-8.2451,10.9937-15.5498,10.9937h-.5791c-2.0254.6509-3.3994,1.8081-3.3994,3.1104,0,1.0122.5791,1.6631,2.3145,1.7358l6.7988.2168c8.8965.2168,13.7422,2.604,13.7422,10.3428,0,8.2451-7.4492,12.3677-17.2861,12.3677-10.126,0-16.2734-3.2544-16.2734-7.9561ZM806.2754,103.0345c0-5.7861-1.8076-8.0278-5.7139-8.0278-3.6885,0-5.6406,2.2417-5.6406,7.811,0,5.4248,2.0244,7.8115,5.7129,7.8115,3.7617,0,5.6416-2.3145,5.6416-7.5947Z" style="fill: #fff;"/>
    <path d="M840.8447,103.7582c0-17.5757,9.1133-26.4717,22.4932-26.4717,7.4502,0,11.8613,1.4463,14.9717,3.4717v9.041h-6.582c-1.2295-5.4971-3.1094-8.1729-8.6064-8.1729-7.4502,0-11.9336,5.207-11.9336,21.77,0,17.4307,4.8457,21.4087,12.3672,21.4087,5.7139,0,7.8838-2.459,8.8965-8.2451h6.2197v8.6792c-2.748,2.0249-8.1006,3.8335-15.333,3.8335-14.9717,0-22.4932-9.4028-22.4932-25.3145Z" style="fill: #fff;"/>
    <path d="M913.458,120.8993l1.5908,2.7485c-3.6885,3.3271-8.2451,5.4248-14.0312,5.4248-10.8486,0-17.2139-7.0161-17.2139-19.167,0-12.0059,6.8711-18.9492,16.5635-18.9492,10.3428,0,15.333,6.5093,15.333,17.5752v2.5312h-22.4941c.2178,9.2578,3.3994,12.585,10.6328,12.585,3.0371,0,6.7256-1.085,9.6191-2.7485ZM893.2783,106.7958h13.4531c0-8.7515-1.8086-11.7891-6.3643-11.7891-4.2676,0-6.582,2.748-7.0889,11.7891Z" style="fill: #fff;"/>
    <path d="M955.8389,120.2484c0,4.1226.7949,4.8462,4.4844,5.063v2.8931h-18.0098v-2.8931c4.123-.1445,4.7012-1.0127,4.7012-4.7734v-17.0693c0-4.3394-1.8076-5.9307-4.9902-5.9307-3.7607,0-6.2207,1.519-8.5352,3.5439v19.4561c0,3.7607.5791,4.6289,4.7012,4.7734v2.8931h-18.2979v-2.8931c3.9053-.2168,4.7734-.9404,4.7734-5.063v-17.4307c0-5.2798-.9404-6.0029-4.8457-6.1475v-2.7485l10.6318-2.8931h1.085c.4336.9399,1.5186,3.6885,1.6631,6.437,3.1826-3.4717,6.8711-6.3647,12.5127-6.3647,5.8584,0,10.126,3.4717,10.126,10.415v18.7324Z" style="fill: #fff;"/>
    <path d="M984.043,96.8148h-7.5938v20.5405c0,5.4248.7227,7.1606,4.3389,7.1606,1.3027,0,2.5322-.2896,4.123-.7959l.8682,3.1826c-2.6045,1.5186-5.3525,2.3145-8.6074,2.3145-6.0752,0-9.5469-2.5317-9.5469-10.126v-22.2764h-4.3398v-3.1104l4.8467-1.8081c.5059-3.3267,1.5908-7.0156,3.3262-9.7642l5.6416-.8677c-.3613,2.6035-.6504,7.0156-.6504,10.7041h8.6787l-1.085,4.8462Z" style="fill: #fff;"/>
    <path d="M1011.8867,90.9564c.9404,0,1.8809.1445,2.459.3613l-1.8076,9.2578c-.9404-.3613-1.7363-.5063-3.1826-.5063-5.7139,0-7.3779,2.0254-7.3779,8.3179v11.8613c0,4.1226.7236,4.9185,5.9316,5.063v2.8931h-19.5283v-2.8931c3.9053-.2168,4.7734-.9404,4.7734-5.063v-17.4307c0-5.2798-.9404-6.0029-4.8457-6.1475v-2.7485l10.6318-2.8931h1.085c.5059,1.085,1.6631,4.4116,1.7354,8.8237,2.3145-5.6416,6.2207-8.896,10.126-8.896Z" style="fill: #fff;"/>
    <path d="M1046.5312,120.8993l1.5908,2.7485c-3.6885,3.3271-8.2451,5.4248-14.0312,5.4248-10.8486,0-17.2139-7.0161-17.2139-19.167,0-12.0059,6.8711-18.9492,16.5635-18.9492,10.3418,0,15.333,6.5093,15.333,17.5752v2.5312h-22.4941c.2178,9.2578,3.3994,12.585,10.6328,12.585,3.0371,0,6.7256-1.085,9.6191-2.7485ZM1026.3516,106.7958h13.4531c0-8.7515-1.8076-11.7891-6.3643-11.7891-4.2676,0-6.582,2.748-7.0889,11.7891Z" style="fill: #fff;"/>
  </g>
  <g>
    <path d="M495.1499,209.6058c0-10.0703,5.2217-15.168,12.8887-15.168,4.2686,0,6.7964.8291,8.5786,1.9893v5.1807h-3.7715c-.7046-3.1504-1.7817-4.6836-4.9316-4.6836-4.2686,0-6.8379,2.9844-6.8379,12.4746,0,9.9873,2.7769,12.2666,7.0864,12.2666,3.2744,0,4.5176-1.4082,5.0977-4.7236h3.564v4.9727c-1.5747,1.1602-4.6416,2.1963-8.7856,2.1963-8.5786,0-12.8887-5.3877-12.8887-14.5049Z" style="fill: #fff;"/>
    <path d="M536.7578,219.4281l.9116,1.5742c-2.1133,1.9072-4.7241,3.1084-8.0396,3.1084-6.2163,0-9.8638-4.0195-9.8638-10.9824,0-6.8789,3.9375-10.8574,9.4907-10.8574,5.9263,0,8.7856,3.7295,8.7856,10.0703v1.4502h-12.8887c.1245,5.3047,1.9478,7.2109,6.0923,7.2109,1.7407,0,3.854-.6211,5.5117-1.5742ZM525.1953,211.3461h7.7085c0-5.0137-1.0361-6.7549-3.647-6.7549-2.4453,0-3.7715,1.5752-4.0615,6.7549Z" style="fill: #fff;"/>
    <path d="M561.043,219.055c0,2.3623.4561,2.7764,2.5693,2.9004v1.6582h-10.3193v-1.6582c2.3623-.082,2.6934-.5801,2.6934-2.7344v-9.7812c0-2.4863-1.0361-3.3984-2.8594-3.3984-2.1553,0-3.5635.8711-4.8896,2.0312v11.1484c0,2.1543.3311,2.6523,2.6934,2.7344v1.6582h-10.4844v-1.6582c2.2378-.124,2.7344-.5381,2.7344-2.9004v-9.9883c0-3.0254-.5381-3.4395-2.7759-3.5225v-1.5742l6.0913-1.6582h.6221c.248.5391.8701,2.1133.9531,3.6885,1.8232-1.9893,3.9365-3.6465,7.1699-3.6465,3.3564,0,5.8018,1.9893,5.8018,5.9678v10.7334Z" style="fill: #fff;"/>
    <path d="M577.2051,205.6273h-4.3516v11.7695c0,3.1084.4141,4.1035,2.4863,4.1035.7461,0,1.4502-.166,2.3623-.4561l.4971,1.8232c-1.4912.8701-3.0664,1.3262-4.9316,1.3262-3.4814,0-5.4707-1.4502-5.4707-5.8018v-12.7646h-2.4863v-1.7822l2.7764-1.0361c.291-1.9062.9121-4.0195,1.9072-5.5947l3.2324-.4971c-.207,1.4922-.373,4.0195-.373,6.1338h4.9727l-.6211,2.7764Z" style="fill: #fff;"/>
    <path d="M593.1602,202.2709c.5391,0,1.0771.083,1.4092.207l-1.0361,5.3047c-.5391-.207-.9951-.29-1.8232-.29-3.2744,0-4.2275,1.1602-4.2275,4.7656v6.7969c0,2.3623.4141,2.8184,3.3984,2.9004v1.6582h-11.1895v-1.6582c2.2373-.124,2.7354-.5381,2.7354-2.9004v-9.9883c0-3.0254-.5391-3.4395-2.7773-3.5225v-1.5742l6.0928-1.6582h.6211c.29.6221.9531,2.5283.9951,5.0557,1.3262-3.2324,3.5635-5.0967,5.8018-5.0967Z" style="fill: #fff;"/>
    <path d="M613.0107,219.4281l.9121,1.5742c-2.1143,1.9072-4.7246,3.1084-8.04,3.1084-6.2168,0-9.8633-4.0195-9.8633-10.9824,0-6.8789,3.9365-10.8574,9.4902-10.8574,5.9268,0,8.7861,3.7295,8.7861,10.0703v1.4502h-12.8887c.124,5.3047,1.9473,7.2109,6.0918,7.2109,1.7402,0,3.8545-.6211,5.5117-1.5742ZM601.4482,211.3461h7.708c0-5.0137-1.0361-6.7549-3.6465-6.7549-2.4453,0-3.7715,1.5752-4.0615,6.7549Z" style="fill: #fff;"/>
    <path d="M634.6436,224.0697c-4.5586,0-8.2471-3.1084-8.2471-10.6514,0-7.1689,3.6465-11.0645,8.9932-11.0645,2.0723,0,4.0195.7871,5.2627,2.2373v-5.0557c0-3.0254-.6211-3.4395-2.8594-3.5225v-1.5752l6.9629-1.1602h.9531v24.3682c0,3.0254.5381,3.3984,2.9424,3.5225v1.4922l-6.0508,1.4922h-.6221c-.165-.207-.8701-1.5752-1.0361-3.4814-1.3262,1.9893-3.7715,3.3984-6.2988,3.3984ZM636.1357,220.9613c1.6162,0,3.1494-.8701,4.5166-2.3203v-11.3975c-1.0771-1.3262-2.6934-1.9062-4.2266-1.9062-2.7773,0-4.5596,1.4922-4.5596,7.584,0,6.1338,1.4512,8.04,4.2695,8.04Z" style="fill: #fff;"/>
    <path d="M667.8799,219.4281l.9121,1.5742c-2.1143,1.9072-4.7246,3.1084-8.04,3.1084-6.2168,0-9.8633-4.0195-9.8633-10.9824,0-6.8789,3.9365-10.8574,9.4902-10.8574,5.9268,0,8.7861,3.7295,8.7861,10.0703v1.4502h-12.8887c.124,5.3047,1.9473,7.2109,6.0918,7.2109,1.7402,0,3.8545-.6211,5.5117-1.5742ZM656.3174,211.3461h7.708c0-5.0137-1.0361-6.7549-3.6465-6.7549-2.4453,0-3.7715,1.5752-4.0615,6.7549Z" style="fill: #fff;"/>
    <path d="M707.001,202.3539c3.1914,0,5.5957,1.9893,5.5957,5.9678v10.7334c0,2.3623.4551,2.8184,2.5693,2.9004v1.6582h-10.1123v-1.6582c2.2383-.082,2.4863-.5381,2.4863-2.6934v-9.8223c0-2.4863-.8291-3.3984-2.4863-3.3984-1.7822,0-3.0664.7461-4.2686,1.6992v11.5215c0,2.1553.373,2.6113,2.3203,2.6934v1.6582h-9.9043v-1.6582c2.2373-.082,2.4863-.5381,2.4863-2.6934v-9.8223c0-2.4863-.7871-3.3984-2.4863-3.3984-1.9482,0-3.1914.8711-4.5176,1.9072v11.3135c0,2.1553.249,2.6113,2.4863,2.6934v1.6582h-10.2773v-1.6582c2.2373-.082,2.7354-.5381,2.7354-2.9004v-9.9883c0-3.0254-.5391-3.4395-2.7773-3.5225v-1.5742l6.0928-1.6582h.6211c.249.6631.8291,2.0312.9121,3.5225,1.8232-1.9473,3.7715-3.4805,6.7139-3.4805,2.3203,0,4.2686,1.2842,5.0557,3.4805,1.8232-1.9893,3.9785-3.4805,6.7549-3.4805Z" style="fill: #fff;"/>
    <path d="M727.4736,224.1107c-6.0918,0-9.9873-3.9785-9.9873-10.8574,0-6.7139,4.0615-10.9824,10.1123-10.9824,6.0918,0,9.9873,4.0615,9.9873,10.8574,0,7.2939-4.4756,10.9824-10.1123,10.9824ZM727.4736,204.6332c-3.3154,0-4.4756,2.5693-4.4756,8.4541,0,6.0088,1.1191,8.7441,4.6416,8.7441,2.9424,0,4.4346-2.8184,4.4346-8.7031,0-6.1748-1.5752-8.4951-4.6006-8.4951Z" style="fill: #fff;"/>
    <path d="M748.8174,224.0697c-4.5586,0-8.2471-3.1084-8.2471-10.6514,0-7.1689,3.6465-11.0645,8.9932-11.0645,2.0723,0,4.0195.7871,5.2627,2.2373v-5.0557c0-3.0254-.6211-3.4395-2.8594-3.5225v-1.5752l6.9629-1.1602h.9531v24.3682c0,3.0254.5381,3.3984,2.9424,3.5225v1.4922l-6.0508,1.4922h-.6221c-.165-.207-.8701-1.5752-1.0361-3.4814-1.3262,1.9893-3.7715,3.3984-6.2988,3.3984ZM750.3096,220.9613c1.6162,0,3.1494-.8701,4.5166-2.3203v-11.3975c-1.0771-1.3262-2.6934-1.9062-4.2266-1.9062-2.7773,0-4.5596,1.4922-4.5596,7.584,0,6.1338,1.4512,8.04,4.2695,8.04Z" style="fill: #fff;"/>
    <path d="M782.0537,219.4281l.9121,1.5742c-2.1143,1.9072-4.7246,3.1084-8.04,3.1084-6.2168,0-9.8633-4.0195-9.8633-10.9824,0-6.8789,3.9365-10.8574,9.4902-10.8574,5.9268,0,8.7861,3.7295,8.7861,10.0703v1.4502h-12.8887c.124,5.3047,1.9473,7.2109,6.0918,7.2109,1.7402,0,3.8545-.6211,5.5117-1.5742ZM769.4971,198.9134l7.625-7.0869,2.7354,4.5176-9.4072,4.0205-.9531-1.4512ZM770.4912,211.3461h7.708c0-5.0137-1.0361-6.7549-3.6465-6.7549-2.4453,0-3.7715,1.5752-4.0615,6.7549Z" style="fill: #fff;"/>
    <path d="M793.4922,218.972c0,2.4033.4141,2.9014,2.8174,2.9834v1.6582h-10.6914v-1.6582c2.3203-.124,2.8174-.5381,2.8174-2.9004v-19.5195c0-3.0254-.6631-3.4395-2.9834-3.5225v-1.5752l6.7969-1.1602h.6211c.249.6211.6221,1.9893.6221,4.1025v21.5918Z" style="fill: #fff;"/>
    <path d="M798.3398,223.6136v-1.6582c2.2373-.124,2.7354-.5381,2.7354-2.9004v-9.9883c0-3.0254-.5391-3.4395-2.7773-3.5225v-1.5742l7.0459-1.5342h.7871v16.6191c0,2.3623.332,2.8184,2.6943,2.9004v1.6582h-10.4854ZM803.3125,199.9496c-1.7402,0-3.1494-1.4092-3.1494-3.1494s1.4092-3.1494,3.1914-3.1494,3.1494,1.4092,3.1494,3.1494-1.4092,3.1494-3.1914,3.1494Z" style="fill: #fff;"/>
    <path d="M811.1445,222.3705v-4.2686h3.4814c.3311,2.8594,1.7402,3.7715,4.2686,3.7715,2.1963,0,3.8535-.8711,3.8535-3.0674,0-1.9473-1.0771-2.6934-3.2324-3.1904l-2.8594-.6631c-3.2744-.7461-5.3457-2.6113-5.3457-6.0928,0-4.3516,3.5225-6.5479,7.832-6.5479,3.4814,0,5.6777.9531,6.7139,1.4502v4.1035h-3.2734c-.373-2.2793-1.6582-3.2324-3.8545-3.2324-2.1553,0-3.3984.9941-3.3984,2.7764,0,1.5332.7871,2.3623,2.8594,2.8184l2.7354.6211c4.0205.9531,6.0918,2.9424,6.0918,6.3408,0,4.3105-3.1904,6.9209-8.5371,6.9209-4.1436,0-6.2158-1.1191-7.335-1.7402Z" style="fill: #fff;"/>
    <path d="M849.6035,221.5004v1.6162c-.7461.4141-2.1133.7461-3.6055.7461-2.7354,0-3.7295-1.1611-4.0205-2.9014-.7041,1.3672-2.5273,3.2324-5.7188,3.2324-3.8125,0-6.6309-1.9473-6.6309-6.0088,0-4.9316,3.9785-6.7969,10.4854-6.7969.4971,0,1.2021,0,1.7402.041v-1.8643c0-3.3574-.7871-4.8496-3.3154-4.8496-2.9004,0-3.6885,1.6992-4.0195,3.7715h-3.6475v-3.9785c1.9893-1.1191,5.2637-2.2373,8.3721-2.2373,4.7246,0,7.708,2.1133,7.708,6.9619,0,1.2432-.166,4.7656-.166,8.5371,0,3.1084.415,3.6055,2.8184,3.7305ZM840.3203,213.5433c-3.6885,0-5.4287,1.2432-5.4287,4.0615,0,2.6523,1.0361,3.4395,2.9834,3.4395,1.4922,0,2.9424-.9531,3.7715-2.2383l.124-5.2217c-.3311,0-1.1191-.041-1.4502-.041Z" style="fill: #fff;"/>
    <path d="M862.9893,205.6273h-4.3516v11.7695c0,3.1084.4141,4.1035,2.4863,4.1035.7461,0,1.4502-.166,2.3623-.4561l.4971,1.8232c-1.4922.8701-3.0664,1.3262-4.9316,1.3262-3.4814,0-5.4707-1.4502-5.4707-5.8018v-12.7646h-2.4863v-1.7822l2.7773-1.0361c.29-1.9062.9111-4.0195,1.9062-5.5947l3.2324-.4971c-.207,1.4922-.373,4.0195-.373,6.1338h4.9727l-.6211,2.7764Z" style="fill: #fff;"/>
    <path d="M865.4756,223.6136v-1.6582c2.2373-.124,2.7354-.5381,2.7354-2.9004v-9.9883c0-3.0254-.5391-3.4395-2.7773-3.5225v-1.5742l7.0459-1.5342h.7871v16.6191c0,2.3623.332,2.8184,2.6934,2.9004v1.6582h-10.4844ZM870.4482,199.9496c-1.7402,0-3.1494-1.4092-3.1494-3.1494s1.4092-3.1494,3.1914-3.1494,3.1494,1.4092,3.1494,3.1494-1.4092,3.1494-3.1914,3.1494Z" style="fill: #fff;"/>
    <path d="M888.3506,224.1107c-6.0918,0-9.9873-3.9785-9.9873-10.8574,0-6.7139,4.0615-10.9824,10.1123-10.9824,6.0918,0,9.9873,4.0615,9.9873,10.8574,0,7.2939-4.4756,10.9824-10.1123,10.9824ZM888.3506,204.6332c-3.3154,0-4.4756,2.5693-4.4756,8.4541,0,6.0088,1.1191,8.7441,4.6416,8.7441,2.9424,0,4.4346-2.8184,4.4346-8.7031,0-6.1748-1.5752-8.4951-4.6006-8.4951Z" style="fill: #fff;"/>
    <path d="M921.6709,219.055c0,2.3623.4561,2.7764,2.5693,2.9004v1.6582h-10.3193v-1.6582c2.3623-.082,2.6943-.5801,2.6943-2.7344v-9.7812c0-2.4863-1.0361-3.3984-2.8594-3.3984-2.1553,0-3.5645.8711-4.8906,2.0312v11.1484c0,2.1543.332,2.6523,2.6943,2.7344v1.6582h-10.4854v-1.6582c2.2373-.124,2.7354-.5381,2.7354-2.9004v-9.9883c0-3.0254-.5391-3.4395-2.7773-3.5225v-1.5742l6.0928-1.6582h.6211c.249.5391.8701,2.1133.9531,3.6885,1.8242-1.9893,3.9375-3.6465,7.1699-3.6465,3.3564,0,5.8018,1.9893,5.8018,5.9678v10.7334Z" style="fill: #fff;"/>
    <path d="M514.6279,266.2552v1.6162c-.7461.4141-2.1138.7461-3.6055.7461-2.7354,0-3.73-1.1611-4.02-2.9014-.7046,1.3672-2.5278,3.2324-5.7192,3.2324-3.8125,0-6.6309-1.9473-6.6309-6.0088,0-4.9316,3.9785-6.7969,10.4854-6.7969.4971,0,1.2017,0,1.7402.041v-1.8643c0-3.3574-.7871-4.8486-3.3154-4.8486-2.9009,0-3.688,1.6982-4.02,3.7705h-3.6465v-3.9785c1.9893-1.1182,5.2632-2.2373,8.3711-2.2373,4.7246,0,7.7085,2.1133,7.7085,6.9619,0,1.2432-.1655,4.7666-.1655,8.5371,0,3.1084.4141,3.6055,2.8179,3.7305ZM505.3447,258.2982c-3.6885,0-5.4292,1.2432-5.4292,4.0615,0,2.6523,1.0361,3.4395,2.9839,3.4395,1.4922,0,2.9429-.9531,3.7715-2.2383l.1245-5.2217c-.3315,0-1.1191-.041-1.4507-.041Z" style="fill: #fff;"/>
    <path d="M523.3306,268.5755l-6.3403-16.5771c-.7876-2.0723-1.2847-2.4863-2.8184-2.6934v-1.6992h10.3193v1.6992c-1.8647.041-2.4868.4561-2.4868,1.2842,0,.332.083.6631.249,1.1611l3.0664,8.6611c.373,1.0361.7461,2.4863.8706,3.3984h.207c.083-.4561.4561-2.0723.9116-3.3984l2.9429-8.6611c.1655-.4561.2485-.8291.2485-1.1191,0-.9121-.7046-1.2852-2.5693-1.3262v-1.6992h8.2886v1.6992c-1.6577.207-2.1968.5801-2.9429,2.6934l-6.0503,16.5771h-3.896Z" style="fill: #fff;"/>
    <path d="M537.2969,268.3685v-1.6572c2.2378-.125,2.7349-.5391,2.7349-2.9014v-9.9883c0-3.0244-.5386-3.4395-2.7764-3.5225v-1.5742l7.0444-1.5342h.7881v16.6191c0,2.3623.3311,2.8184,2.6934,2.9014v1.6572h-10.4844ZM542.27,244.7045c-1.7407,0-3.1499-1.4092-3.1499-3.1494s1.4092-3.1494,3.1909-3.1494,3.1499,1.4092,3.1499,3.1494-1.4092,3.1494-3.1909,3.1494Z" style="fill: #fff;"/>
    <path d="M569.9111,266.2552v1.6162c-.7461.4141-2.1133.7461-3.6055.7461-2.7354,0-3.7295-1.1611-4.0195-2.9014-.7051,1.3672-2.5283,3.2324-5.7197,3.2324-3.8125,0-6.6309-1.9473-6.6309-6.0088,0-4.9316,3.9785-6.7969,10.4854-6.7969.4971,0,1.2012,0,1.7402.041v-1.8643c0-3.3574-.7871-4.8486-3.3154-4.8486-2.9004,0-3.6885,1.6982-4.0195,3.7705h-3.6475v-3.9785c1.9893-1.1182,5.2637-2.2373,8.3721-2.2373,4.7236,0,7.708,2.1133,7.708,6.9619,0,1.2432-.166,4.7666-.166,8.5371,0,3.1084.415,3.6055,2.8184,3.7305ZM560.6279,258.2982c-3.6885,0-5.4287,1.2432-5.4287,4.0615,0,2.6523,1.0361,3.4395,2.9834,3.4395,1.4922,0,2.9424-.9531,3.7715-2.2383l.124-5.2217c-.3311,0-1.1182-.041-1.4502-.041Z" style="fill: #fff;"/>
    <path d="M571.6514,268.3685v-1.6572c2.2373-.125,2.7354-.5391,2.7354-2.9014v-9.9883c0-3.0244-.5391-3.4395-2.7773-3.5225v-1.5742l7.0459-1.5342h.7871v16.6191c0,2.3623.332,2.8184,2.6934,2.9014v1.6572h-10.4844ZM576.624,244.7045c-1.7402,0-3.1494-1.4092-3.1494-3.1494s1.4092-3.1494,3.1914-3.1494,3.1494,1.4092,3.1494,3.1494-1.4092,3.1494-3.1914,3.1494Z" style="fill: #fff;"/>
    <path d="M597.6357,247.0257c.5391,0,1.0771.083,1.4092.207l-1.0361,5.3047c-.5391-.207-.9951-.29-1.8232-.29-3.2744,0-4.2275,1.1602-4.2275,4.7656v6.7969c0,2.3623.4141,2.8184,3.3984,2.9014v1.6572h-11.1895v-1.6572c2.2373-.125,2.7354-.5391,2.7354-2.9014v-9.9883c0-3.0244-.5391-3.4395-2.7773-3.5225v-1.5742l6.0928-1.6582h.6211c.29.6221.9531,2.5283.9951,5.0566,1.3262-3.2334,3.5635-5.0977,5.8018-5.0977Z" style="fill: #fff;"/>
    <path d="M617.4873,264.183l.9121,1.5742c-2.1143,1.9072-4.7246,3.1084-8.04,3.1084-6.2168,0-9.8633-4.0195-9.8633-10.9824,0-6.8789,3.9365-10.8574,9.4902-10.8574,5.9268,0,8.7861,3.7295,8.7861,10.0703v1.4502h-12.8887c.124,5.3047,1.9473,7.2109,6.0918,7.2109,1.7402,0,3.8545-.6211,5.5117-1.5742ZM605.9248,256.1019h7.708c0-5.0146-1.0361-6.7559-3.6465-6.7559-2.4453,0-3.7715,1.5752-4.0615,6.7559Z" style="fill: #fff;"/>
    <path d="M635.3896,268.3685h-3.3154c.373-.9951.5391-2.1553.5391-4.8486v-19.2295c0-3.0254-.6211-3.4404-2.8594-3.5225v-1.5752l6.6719-1.1602h.6221c.3311.6631.6211,2.0303.6211,4.1025v8.1641c1.2021-1.6572,3.2334-3.1904,6.2168-3.1904,4.8486,0,7.999,3.4395,7.999,10.6094,0,7.459-3.5234,11.1064-8.9111,11.1064-3.1494,0-5.1387-1.4922-6.2578-3.0674-.248.7881-.7871,2.0723-1.3262,2.6113ZM642.2285,250.5892c-1.9072,0-3.6055.9951-4.5596,2.0723v11.1484c1.1611,1.2021,2.3623,1.9473,4.3516,1.9473,2.8604,0,4.4766-1.6572,4.4766-7.791,0-5.6777-1.4922-7.377-4.2686-7.377Z" style="fill: #fff;"/>
    <path d="M664.8555,268.8656c-6.0918,0-9.9873-3.9785-9.9873-10.8574,0-6.7139,4.0615-10.9824,10.1113-10.9824,6.0928,0,9.9883,4.0615,9.9883,10.8574,0,7.2939-4.4756,10.9824-10.1123,10.9824ZM664.8555,249.388c-3.3154,0-4.4756,2.5693-4.4756,8.4541,0,6.0088,1.1191,8.7441,4.6416,8.7441,2.9424,0,4.4346-2.8184,4.4346-8.7031,0-6.1748-1.5752-8.4951-4.6006-8.4951Z" style="fill: #fff;"/>
    <path d="M691.0469,247.0257c.5391,0,1.0771.083,1.4092.207l-1.0361,5.3047c-.5391-.207-.9951-.29-1.8232-.29-3.2744,0-4.2275,1.1602-4.2275,4.7656v6.7969c0,2.3623.4141,2.8184,3.3984,2.9014v1.6572h-11.1895v-1.6572c2.2373-.125,2.7354-.5391,2.7354-2.9014v-9.9883c0-3.0244-.5391-3.4395-2.7773-3.5225v-1.5742l6.0928-1.6582h.6211c.29.6221.9531,2.5283.9951,5.0566,1.3262-3.2334,3.5635-5.0977,5.8018-5.0977Z" style="fill: #fff;"/>
    <path d="M710.8984,264.183l.9121,1.5742c-2.1143,1.9072-4.7246,3.1084-8.04,3.1084-6.2168,0-9.8633-4.0195-9.8633-10.9824,0-6.8789,3.9365-10.8574,9.4902-10.8574,5.9258,0,8.7861,3.7295,8.7861,10.0703v1.4502h-12.8887c.124,5.3047,1.9473,7.2109,6.0918,7.2109,1.7402,0,3.8545-.6211,5.5117-1.5742ZM698.3418,243.6683l7.625-7.0869,2.7354,4.5176-9.4072,4.0205-.9531-1.4512ZM699.3359,256.1019h7.708c0-5.0146-1.0352-6.7559-3.6465-6.7559-2.4453,0-3.7715,1.5752-4.0615,6.7559Z" style="fill: #fff;"/>
    <path d="M734.6865,266.2552v1.6162c-.7461.4141-2.1133.7461-3.6055.7461-2.7354,0-3.7295-1.1611-4.0195-2.9014-.7051,1.3672-2.5283,3.2324-5.7197,3.2324-3.8125,0-6.6309-1.9473-6.6309-6.0088,0-4.9316,3.9785-6.7969,10.4854-6.7969.4971,0,1.2012,0,1.7402.041v-1.8643c0-3.3574-.7871-4.8486-3.3154-4.8486-2.9004,0-3.6885,1.6982-4.0195,3.7705h-3.6475v-3.9785c1.9893-1.1182,5.2637-2.2373,8.3721-2.2373,4.7236,0,7.708,2.1133,7.708,6.9619,0,1.2432-.166,4.7666-.166,8.5371,0,3.1084.415,3.6055,2.8184,3.7305ZM725.4033,258.2982c-3.6885,0-5.4287,1.2432-5.4287,4.0615,0,2.6523,1.0361,3.4395,2.9834,3.4395,1.4922,0,2.9424-.9531,3.7715-2.2383l.124-5.2217c-.3311,0-1.1182-.041-1.4502-.041Z" style="fill: #fff;"/>
    <path d="M744.1768,263.7269c0,2.4033.4141,2.9014,2.8174,2.9844v1.6572h-10.6924v-1.6572c2.3213-.125,2.8184-.5391,2.8184-2.9014v-19.5195c0-3.0254-.6631-3.4404-2.9834-3.5225v-1.5752l6.7959-1.1602h.6221c.249.6211.6221,1.9893.6221,4.1025v21.5918Z" style="fill: #fff;"/>
  </g>
</svg>